<?xml version="1.0" encoding="utf-8"?>
<!-- Generator: Adobe Illustrator 23.0.1, SVG Export Plug-In . SVG Version: 6.00 Build 0)  -->
<svg version="1.1" id="圖層_1" xmlns="http://www.w3.org/2000/svg" xmlns:xlink="http://www.w3.org/1999/xlink" x="0px" y="0px"
	 viewBox="0 0 73.7 6.24" style="enable-background:new 0 0 73.7 6.24;" xml:space="preserve">
<style type="text/css">
	.st0{fill:#303030;}
</style>
<g>
	<path class="st0" d="M0,0.84h2.02V1.1H0.3v1.33h1.45v0.26H0.3v1.55h1.77v0.26H0V0.84z"/>
	<path class="st0" d="M2.56,2.98h1.23v0.25H2.56V2.98z"/>
	<path class="st0" d="M4.5,1.82h0.24l0.04,0.41h0.01c0.24-0.27,0.54-0.48,0.84-0.48c0.43,0,0.64,0.22,0.74,0.54
		c0.3-0.33,0.59-0.54,0.9-0.54c0.54,0,0.8,0.35,0.8,1.03v1.71H7.77V2.82c0-0.56-0.19-0.81-0.58-0.81c-0.24,0-0.49,0.16-0.77,0.48v2
		H6.14V2.82c0-0.56-0.18-0.81-0.58-0.81c-0.24,0-0.49,0.16-0.77,0.48v2H4.5V1.82z"/>
	<path class="st0" d="M8.83,3.82c0-0.59,0.53-0.87,1.7-1.01c0.01-0.4-0.11-0.81-0.61-0.81c-0.35,0-0.66,0.17-0.84,0.31L8.95,2.1
		c0.21-0.14,0.58-0.35,1.01-0.35c0.64,0,0.86,0.46,0.86,1.05v1.69h-0.25l-0.03-0.34h-0.01c-0.27,0.22-0.59,0.41-0.93,0.41
		C9.18,4.56,8.83,4.31,8.83,3.82z M10.54,3.89V3.03C9.49,3.15,9.13,3.39,9.13,3.8c0,0.37,0.25,0.51,0.55,0.51
		C9.97,4.31,10.22,4.17,10.54,3.89z"/>
	<path class="st0" d="M11.66,0.97c0-0.15,0.11-0.24,0.25-0.24c0.13,0,0.25,0.09,0.25,0.24c0,0.14-0.12,0.23-0.25,0.23
		C11.77,1.2,11.66,1.1,11.66,0.97z M11.75,1.82h0.29v2.67h-0.29V1.82z"/>
	<path class="st0" d="M13.04,4.09V0.51h0.29v3.61c0,0.13,0.05,0.18,0.12,0.18c0.02,0,0.04,0,0.1-0.01l0.05,0.23
		c-0.05,0.02-0.1,0.03-0.2,0.03C13.16,4.56,13.04,4.4,13.04,4.09z"/>
	<path class="st0" d="M14.25,2.19c0-0.17,0.12-0.28,0.25-0.28c0.14,0,0.26,0.11,0.26,0.28c0,0.16-0.12,0.27-0.26,0.27
		C14.37,2.46,14.25,2.36,14.25,2.19z M14.25,4.28c0-0.17,0.12-0.27,0.25-0.27c0.14,0,0.26,0.11,0.26,0.27
		c0,0.17-0.12,0.27-0.26,0.27C14.37,4.56,14.25,4.45,14.25,4.28z"/>
	<path class="st0" d="M16.41,4.19l0.15-0.21c0.23,0.2,0.48,0.34,0.84,0.34c0.41,0,0.61-0.23,0.61-0.51c0-0.32-0.34-0.46-0.65-0.57
		c-0.4-0.14-0.84-0.31-0.84-0.77c0-0.39,0.32-0.72,0.88-0.72c0.29,0,0.58,0.13,0.78,0.29l-0.15,0.2C17.86,2.1,17.66,2,17.4,2
		c-0.4,0-0.58,0.22-0.58,0.46c0,0.3,0.31,0.41,0.62,0.52c0.41,0.16,0.86,0.3,0.86,0.82c0,0.41-0.33,0.76-0.92,0.76
		C17,4.56,16.65,4.39,16.41,4.19z"/>
	<path class="st0" d="M18.78,3.16c0-0.87,0.57-1.41,1.17-1.41c0.65,0,1.03,0.46,1.03,1.24c0,0.07-0.01,0.15-0.02,0.21h-1.89
		c0.01,0.65,0.4,1.11,0.98,1.11c0.29,0,0.51-0.09,0.71-0.23l0.11,0.22c-0.22,0.14-0.47,0.26-0.85,0.26
		C19.33,4.56,18.78,4.03,18.78,3.16z M20.71,2.97c0-0.65-0.3-0.97-0.76-0.97c-0.44,0-0.83,0.36-0.88,0.97H20.71z"/>
	<path class="st0" d="M21.59,0.97c0-0.15,0.11-0.24,0.25-0.24c0.13,0,0.25,0.09,0.25,0.24c0,0.14-0.12,0.23-0.25,0.23
		C21.7,1.2,21.59,1.1,21.59,0.97z M21.69,1.82h0.29v2.67h-0.29V1.82z"/>
	<path class="st0" d="M22.61,5.64l0.06-0.24c0.05,0.02,0.14,0.04,0.22,0.04c0.32,0,0.54-0.29,0.67-0.68l0.07-0.23l-1.09-2.71h0.32
		l0.62,1.63c0.09,0.23,0.19,0.51,0.28,0.75h0.03c0.08-0.24,0.16-0.52,0.24-0.75l0.55-1.63h0.3L23.82,4.8
		c-0.16,0.46-0.43,0.89-0.92,0.89C22.79,5.69,22.69,5.67,22.61,5.64z"/>
	<path class="st0" d="M25.38,3.53V1.82h0.29v1.67c0,0.55,0.17,0.8,0.58,0.8c0.31,0,0.53-0.16,0.83-0.52V1.82h0.29v2.67h-0.25
		L27.1,4.05h-0.01c-0.26,0.3-0.53,0.51-0.9,0.51C25.63,4.56,25.38,4.21,25.38,3.53z"/>
	<path class="st0" d="M28.33,3.53V1.82h0.29v1.67c0,0.55,0.17,0.8,0.58,0.8c0.31,0,0.53-0.16,0.83-0.52V1.82h0.29v2.67h-0.25
		l-0.03-0.44h-0.01c-0.26,0.3-0.53,0.51-0.9,0.51C28.58,4.56,28.33,4.21,28.33,3.53z"/>
	<path class="st0" d="M33.06,4.67l0.02-0.52c-0.24,0.23-0.53,0.41-0.87,0.41c-0.67,0-1.11-0.5-1.11-1.4c0-0.86,0.55-1.41,1.18-1.41
		c0.32,0,0.54,0.12,0.79,0.32h0.01l0.04-0.25h0.24v3.86h-0.29V4.67z M33.06,3.88V2.34c-0.27-0.24-0.5-0.33-0.75-0.33
		c-0.51,0-0.9,0.5-0.9,1.15c0,0.69,0.31,1.14,0.85,1.14C32.54,4.3,32.79,4.15,33.06,3.88z"/>
	<path class="st0" d="M34.31,3.53V1.82h0.29v1.67c0,0.55,0.17,0.8,0.58,0.8c0.31,0,0.53-0.16,0.83-0.52V1.82h0.29v2.67h-0.25
		l-0.02-0.44h-0.02c-0.26,0.3-0.53,0.51-0.9,0.51C34.56,4.56,34.31,4.21,34.31,3.53z"/>
	<path class="st0" d="M37.08,3.16c0-0.87,0.57-1.41,1.17-1.41c0.65,0,1.03,0.46,1.03,1.24c0,0.07-0.01,0.15-0.02,0.21h-1.89
		c0.02,0.65,0.4,1.11,0.98,1.11c0.29,0,0.51-0.09,0.71-0.23l0.11,0.22c-0.22,0.14-0.47,0.26-0.85,0.26
		C37.63,4.56,37.08,4.03,37.08,3.16z M39.01,2.97c0-0.65-0.3-0.97-0.76-0.97c-0.44,0-0.83,0.36-0.88,0.97H39.01z"/>
	<path class="st0" d="M39.77,3.16c0-0.87,0.57-1.41,1.17-1.41c0.65,0,1.03,0.46,1.03,1.24c0,0.07-0.01,0.15-0.02,0.21h-1.89
		c0.02,0.65,0.4,1.11,0.98,1.11c0.29,0,0.51-0.09,0.71-0.23l0.11,0.22c-0.22,0.14-0.47,0.26-0.85,0.26
		C40.32,4.56,39.77,4.03,39.77,3.16z M41.7,2.97c0-0.65-0.3-0.97-0.76-0.97c-0.44,0-0.83,0.36-0.88,0.97H41.7z"/>
	<path class="st0" d="M42.68,1.82h0.24l0.04,0.41h0.01c0.27-0.27,0.55-0.48,0.91-0.48c0.56,0,0.81,0.35,0.81,1.03v1.71h-0.29V2.82
		c0-0.56-0.18-0.81-0.59-0.81c-0.31,0-0.53,0.16-0.84,0.48v2h-0.29V1.82z"/>
	<path class="st0" d="M45.43,3.37c0-1.46,1.05-2.41,2.23-2.41c1.08,0,1.76,0.72,1.76,1.78c0,0.95-0.57,1.45-1.04,1.45
		c-0.29,0-0.52-0.13-0.54-0.42h-0.01c-0.2,0.21-0.43,0.38-0.68,0.38c-0.35,0-0.64-0.26-0.64-0.77c0-0.55,0.39-1.25,1.04-1.25
		c0.2,0,0.35,0.09,0.45,0.27H48l0.05-0.23h0.21l-0.2,1.06c-0.12,0.49-0.01,0.73,0.33,0.73c0.36,0,0.78-0.44,0.78-1.21
		c0-0.95-0.57-1.57-1.54-1.57c-1.01,0-1.97,0.86-1.97,2.17c0,1.08,0.68,1.73,1.66,1.73c0.36,0,0.67-0.1,0.92-0.26l0.1,0.2
		c-0.31,0.19-0.66,0.29-1.04,0.29C46.23,5.31,45.43,4.6,45.43,3.37z M47.76,3.57l0.17-0.94c-0.13-0.2-0.24-0.27-0.4-0.27
		c-0.49,0-0.79,0.55-0.79,1.01c0,0.41,0.2,0.56,0.44,0.56C47.36,3.93,47.55,3.82,47.76,3.57z"/>
	<path class="st0" d="M49.97,5.03c0-0.24,0.16-0.47,0.4-0.64V4.37c-0.14-0.08-0.24-0.22-0.24-0.43c0-0.23,0.18-0.4,0.3-0.5V3.42
		c-0.17-0.14-0.34-0.4-0.34-0.73c0-0.56,0.43-0.95,0.96-0.95c0.15,0,0.27,0.04,0.36,0.07h0.91v0.24h-0.6
		c0.16,0.14,0.28,0.37,0.28,0.64c0,0.55-0.42,0.94-0.94,0.94c-0.15,0-0.31-0.04-0.43-0.11c-0.11,0.09-0.21,0.2-0.21,0.37
		c0,0.19,0.11,0.34,0.5,0.34h0.56c0.61,0,0.89,0.19,0.89,0.62c0,0.47-0.5,0.91-1.28,0.91C50.4,5.76,49.97,5.48,49.97,5.03z
		 M52.06,4.9c0-0.29-0.21-0.39-0.61-0.39h-0.55c-0.06,0-0.2-0.02-0.34-0.05C50.34,4.62,50.24,4.81,50.24,5
		c0,0.33,0.32,0.55,0.86,0.55C51.68,5.54,52.06,5.22,52.06,4.9z M51.7,2.7c0-0.44-0.3-0.71-0.66-0.71c-0.37,0-0.67,0.27-0.67,0.71
		c0,0.44,0.31,0.73,0.67,0.73C51.39,3.42,51.7,3.13,51.7,2.7z"/>
	<path class="st0" d="M52.91,1.82h0.24l0.04,0.41h0.01c0.24-0.27,0.54-0.48,0.84-0.48c0.43,0,0.64,0.22,0.74,0.54
		c0.3-0.33,0.59-0.54,0.9-0.54c0.54,0,0.8,0.35,0.8,1.03v1.71h-0.29V2.82c0-0.56-0.18-0.81-0.58-0.81c-0.24,0-0.49,0.16-0.77,0.48v2
		h-0.29V2.82c0-0.56-0.18-0.81-0.58-0.81c-0.24,0-0.49,0.16-0.77,0.48v2h-0.29V1.82z"/>
	<path class="st0" d="M57.24,3.82c0-0.59,0.53-0.87,1.7-1.01c0.01-0.4-0.11-0.81-0.61-0.81c-0.35,0-0.66,0.17-0.84,0.31L57.36,2.1
		c0.21-0.14,0.58-0.35,1.01-0.35c0.64,0,0.86,0.46,0.86,1.05v1.69h-0.25l-0.03-0.34h-0.01c-0.27,0.22-0.59,0.41-0.93,0.41
		C57.59,4.56,57.24,4.31,57.24,3.82z M58.94,3.89V3.03c-1.05,0.12-1.41,0.37-1.41,0.78c0,0.37,0.25,0.51,0.55,0.51
		C58.37,4.31,58.63,4.17,58.94,3.89z"/>
	<path class="st0" d="M60.07,0.97c0-0.15,0.11-0.24,0.25-0.24c0.13,0,0.24,0.09,0.24,0.24c0,0.14-0.11,0.23-0.24,0.23
		C60.18,1.2,60.07,1.1,60.07,0.97z M60.16,1.82h0.29v2.67h-0.29V1.82z"/>
	<path class="st0" d="M61.45,4.09V0.51h0.29v3.61c0,0.13,0.05,0.18,0.12,0.18c0.02,0,0.04,0,0.1-0.01L62,4.52
		c-0.05,0.02-0.1,0.03-0.2,0.03C61.56,4.56,61.45,4.4,61.45,4.09z"/>
	<path class="st0" d="M62.65,4.28c0-0.17,0.12-0.27,0.25-0.27c0.14,0,0.26,0.11,0.26,0.27c0,0.17-0.12,0.27-0.26,0.27
		C62.77,4.56,62.65,4.45,62.65,4.28z"/>
	<path class="st0" d="M63.75,3.16c0-0.89,0.58-1.41,1.24-1.41c0.36,0,0.6,0.16,0.78,0.33l-0.16,0.2c-0.16-0.15-0.36-0.27-0.61-0.27
		c-0.53,0-0.94,0.47-0.94,1.15s0.37,1.15,0.93,1.15c0.28,0,0.52-0.14,0.7-0.3l0.14,0.2c-0.23,0.2-0.52,0.35-0.85,0.35
		C64.27,4.56,63.75,4.04,63.75,3.16z"/>
	<path class="st0" d="M66.14,3.16c0-0.89,0.56-1.41,1.21-1.41c0.65,0,1.21,0.52,1.21,1.41c0,0.89-0.56,1.4-1.21,1.4
		C66.7,4.56,66.14,4.04,66.14,3.16z M68.25,3.16c0-0.68-0.38-1.15-0.91-1.15c-0.52,0-0.9,0.47-0.9,1.15s0.38,1.15,0.9,1.15
		C67.86,4.31,68.25,3.84,68.25,3.16z"/>
	<path class="st0" d="M69.33,1.82h0.24l0.04,0.41h0.01c0.24-0.27,0.54-0.48,0.84-0.48c0.43,0,0.64,0.22,0.74,0.54
		c0.3-0.33,0.59-0.54,0.9-0.54c0.54,0,0.8,0.35,0.8,1.03v1.71H72.6V2.82c0-0.56-0.18-0.81-0.58-0.81c-0.24,0-0.49,0.16-0.77,0.48v2
		h-0.29V2.82c0-0.56-0.18-0.81-0.58-0.81c-0.24,0-0.49,0.16-0.77,0.48v2h-0.29V1.82z"/>
</g>
</svg>
