<?xml version="1.0" encoding="utf-8"?>
<!-- Generator: Adobe Illustrator 23.0.1, SVG Export Plug-In . SVG Version: 6.00 Build 0)  -->
<svg version="1.1" id="圖層_1" xmlns="http://www.w3.org/2000/svg" xmlns:xlink="http://www.w3.org/1999/xlink" x="0px" y="0px"
	 viewBox="0 0 170.19 10.22" style="enable-background:new 0 0 170.19 10.22;" xml:space="preserve">
<g>
	<path d="M0.04,7.45c2.25-1.96,3.28-3.39,3.28-4.62c0-0.82-0.43-1.42-1.32-1.42c-0.59,0-1.09,0.36-1.49,0.83L0,1.73
		C0.59,1.1,1.2,0.68,2.11,0.68c1.28,0,2.08,0.84,2.08,2.12c0,1.43-1.12,2.88-2.8,4.48C1.76,7.24,2.2,7.21,2.56,7.21h1.98v0.77h-4.5
		V7.45z"/>
	<path d="M5.52,4.37c0-2.49,0.87-3.69,2.24-3.69c1.36,0,2.23,1.21,2.23,3.69c0,2.49-0.87,3.73-2.23,3.73
		C6.39,8.11,5.52,6.86,5.52,4.37z M9.11,4.37c0-2.09-0.55-2.97-1.36-2.97c-0.82,0-1.37,0.88-1.37,2.97c0,2.11,0.55,3.02,1.37,3.02
		C8.56,7.39,9.11,6.48,9.11,4.37z"/>
	<path d="M11.32,7.24h1.59V1.89h-1.27V1.32c0.64-0.12,1.09-0.28,1.49-0.51h0.68v6.42h1.44v0.74h-3.93V7.24z"/>
	<path d="M16.33,6.2c0-0.96,0.66-1.62,1.32-1.97V4.18c-0.53-0.36-0.97-0.9-0.97-1.65c0-1.09,0.84-1.82,1.96-1.82
		c1.22,0,1.96,0.78,1.96,1.89c0,0.75-0.53,1.4-0.96,1.73v0.05c0.63,0.36,1.21,0.9,1.21,1.88c0,1.05-0.9,1.86-2.25,1.86
		C17.3,8.11,16.33,7.3,16.33,6.2z M20.01,6.23c0-0.96-0.88-1.32-1.9-1.73c-0.58,0.37-0.98,0.94-0.98,1.62c0,0.76,0.64,1.32,1.5,1.32
		C19.46,7.44,20.01,6.94,20.01,6.23z M19.85,2.64c0-0.7-0.45-1.28-1.22-1.28c-0.65,0-1.13,0.47-1.13,1.16
		c0,0.86,0.77,1.23,1.61,1.56C19.59,3.66,19.85,3.17,19.85,2.64z"/>
	<path d="M28.42,7.98l-1.74-3.04h-1.29v3.04h-0.91V0.81h2.25c1.46,0,2.5,0.52,2.5,2.01c0,1.11-0.65,1.78-1.62,2.01l1.84,3.14H28.42z
		 M25.39,4.21h1.2c1.12,0,1.74-0.45,1.74-1.38c0-0.95-0.62-1.28-1.74-1.28h-1.2V4.21z"/>
	<path d="M30.24,6.6c0-1.15,1.01-1.73,3.26-1.98c0-0.68-0.22-1.34-1.09-1.34c-0.62,0-1.17,0.28-1.59,0.57l-0.35-0.62
		c0.49-0.31,1.24-0.69,2.09-0.69c1.29,0,1.84,0.87,1.84,2.18v3.26h-0.73l-0.08-0.63h-0.03c-0.51,0.42-1.1,0.76-1.76,0.76
		C30.91,8.11,30.24,7.56,30.24,6.6z M33.51,6.69V5.2c-1.79,0.22-2.39,0.65-2.39,1.34c0,0.61,0.41,0.85,0.94,0.85
		C32.57,7.39,32.99,7.15,33.51,6.69z"/>
	<path d="M35.68,8.99c0-0.45,0.29-0.88,0.79-1.2V7.75c-0.28-0.17-0.49-0.45-0.49-0.87c0-0.44,0.32-0.79,0.6-0.99V5.86
		c-0.35-0.28-0.69-0.79-0.69-1.43c0-1.16,0.92-1.9,1.99-1.9c0.29,0,0.56,0.07,0.74,0.14h1.85v0.68h-1.08
		c0.25,0.24,0.43,0.63,0.43,1.09c0,1.13-0.86,1.85-1.94,1.85c-0.26,0-0.56-0.07-0.79-0.19c-0.2,0.17-0.34,0.34-0.34,0.63
		c0,0.34,0.21,0.58,0.93,0.58h1.04c1.23,0,1.85,0.39,1.85,1.26c0,0.99-1.04,1.84-2.68,1.84C36.58,10.42,35.68,9.91,35.68,8.99z
		 M39.7,8.72c0-0.49-0.38-0.65-1.09-0.65h-0.92c-0.2,0-0.45-0.03-0.68-0.09c-0.38,0.27-0.55,0.59-0.55,0.9
		c0,0.57,0.58,0.94,1.54,0.94C39.02,9.82,39.7,9.28,39.7,8.72z M39,4.43c0-0.77-0.5-1.24-1.12-1.24c-0.63,0-1.13,0.46-1.13,1.24
		c0,0.77,0.52,1.26,1.13,1.26C38.48,5.69,39,5.2,39,4.43z"/>
	<path d="M41.59,2.67h0.73l0.08,0.76h0.03c0.51-0.5,1.06-0.9,1.78-0.9c1.11,0,1.62,0.72,1.62,2.08v3.36h-0.89V4.73
		c0-1-0.3-1.42-1.01-1.42c-0.55,0-0.92,0.27-1.46,0.81v3.85h-0.89V2.67z"/>
	<path d="M47.24,6.6c0-1.15,1.01-1.73,3.26-1.98c0-0.68-0.22-1.34-1.09-1.34c-0.62,0-1.17,0.28-1.59,0.57l-0.35-0.62
		c0.49-0.31,1.24-0.69,2.09-0.69c1.29,0,1.84,0.87,1.84,2.18v3.26h-0.73l-0.08-0.63h-0.03c-0.51,0.42-1.1,0.76-1.76,0.76
		C47.9,8.11,47.24,7.56,47.24,6.6z M50.5,6.69V5.2c-1.79,0.22-2.39,0.65-2.39,1.34c0,0.61,0.41,0.85,0.94,0.85
		C49.56,7.39,49.98,7.15,50.5,6.69z"/>
	<path d="M53.08,2.67h0.73l0.08,0.97h0.03c0.37-0.67,0.91-1.1,1.5-1.1c0.23,0,0.4,0.03,0.57,0.12l-0.17,0.78
		c-0.18-0.07-0.3-0.09-0.52-0.09c-0.44,0-0.99,0.31-1.34,1.22v3.41h-0.89V2.67z"/>
	<path d="M56.37,5.33c0-1.77,1.16-2.79,2.46-2.79c1.3,0,2.46,1.03,2.46,2.79c0,1.76-1.16,2.78-2.46,2.78
		C57.53,8.11,56.37,7.09,56.37,5.33z M60.38,5.33c0-1.22-0.63-2.05-1.54-2.05c-0.92,0-1.53,0.83-1.53,2.05
		c0,1.22,0.62,2.03,1.53,2.03C59.75,7.36,60.38,6.55,60.38,5.33z"/>
	<path d="M62.69,0.2h0.88v5.28h0.02l2.28-2.8h0.99L65.08,4.8l2.01,3.18h-0.97l-1.55-2.56l-1,1.16v1.4h-0.88V0.2z"/>
	<path d="M71.86,1.58h-2.17V0.81h5.25v0.76h-2.17v6.4h-0.91V1.58z"/>
	<path d="M75.01,6.6c0-1.15,1.01-1.73,3.26-1.98c0-0.68-0.22-1.34-1.09-1.34c-0.62,0-1.17,0.28-1.59,0.57l-0.35-0.62
		c0.49-0.31,1.24-0.69,2.09-0.69c1.29,0,1.84,0.87,1.84,2.18v3.26h-0.73l-0.08-0.63h-0.03c-0.51,0.42-1.1,0.76-1.76,0.76
		C75.68,8.11,75.01,7.56,75.01,6.6z M78.28,6.69V5.2c-1.79,0.22-2.39,0.65-2.39,1.34c0,0.61,0.41,0.85,0.94,0.85
		C77.34,7.39,77.76,7.15,78.28,6.69z"/>
	<path d="M80.69,1c0-0.36,0.26-0.58,0.62-0.58S81.93,0.64,81.93,1c0,0.33-0.26,0.58-0.62,0.58S80.69,1.33,80.69,1z M80.86,2.67h0.89
		v5.31h-0.89V2.67z"/>
	<path d="M82.91,2.67h0.91l0.79,3.07c0.11,0.51,0.21,0.99,0.31,1.49h0.05c0.12-0.5,0.22-0.99,0.36-1.49l0.82-3.07h0.87l0.83,3.07
		c0.13,0.51,0.24,0.99,0.37,1.49h0.04c0.12-0.5,0.21-0.98,0.33-1.49l0.78-3.07h0.84L88.8,7.98h-1.08l-0.77-2.86
		c-0.14-0.5-0.23-0.99-0.36-1.52h-0.05c-0.12,0.54-0.23,1.04-0.36,1.54l-0.74,2.84h-1.05L82.91,2.67z"/>
	<path d="M90.95,6.6c0-1.15,1.01-1.73,3.26-1.98c0-0.68-0.22-1.34-1.09-1.34c-0.62,0-1.17,0.28-1.59,0.57l-0.35-0.62
		c0.49-0.31,1.24-0.69,2.09-0.69c1.29,0,1.84,0.87,1.84,2.18v3.26h-0.73l-0.08-0.63h-0.03c-0.51,0.42-1.1,0.76-1.76,0.76
		C91.62,8.11,90.95,7.56,90.95,6.6z M94.22,6.69V5.2c-1.79,0.22-2.39,0.65-2.39,1.34c0,0.61,0.41,0.85,0.94,0.85
		C93.28,7.39,93.7,7.15,94.22,6.69z"/>
	<path d="M96.8,2.67h0.73l0.08,0.76h0.03c0.51-0.5,1.06-0.9,1.78-0.9c1.11,0,1.62,0.72,1.62,2.08v3.36h-0.89V4.73
		c0-1-0.3-1.42-1.01-1.42c-0.55,0-0.92,0.27-1.46,0.81v3.85H96.8V2.67z"/>
	<path d="M104.63,4.4c0-2.32,1.36-3.72,3.18-3.72c0.87,0,1.55,0.43,1.96,0.89l-0.49,0.59c-0.37-0.4-0.85-0.68-1.47-0.68
		c-1.36,0-2.26,1.11-2.26,2.9c0,1.81,0.86,2.94,2.23,2.94c0.68,0,1.2-0.3,1.66-0.8l0.5,0.57c-0.57,0.65-1.27,1.03-2.2,1.03
		C105.97,8.11,104.63,6.73,104.63,4.4z"/>
	<path d="M111.2,0.2h0.89v2.13l-0.03,1.09c0.49-0.49,1.04-0.89,1.76-0.89c1.11,0,1.62,0.72,1.62,2.08v3.36h-0.89V4.73
		c0-1-0.3-1.42-1.01-1.42c-0.55,0-0.92,0.27-1.46,0.81v3.85h-0.89V0.2z"/>
	<path d="M116.8,6.6c0-1.15,1.01-1.73,3.26-1.98c0-0.68-0.22-1.34-1.09-1.34c-0.62,0-1.17,0.28-1.59,0.57l-0.35-0.62
		c0.49-0.31,1.24-0.69,2.09-0.69c1.29,0,1.84,0.87,1.84,2.18v3.26h-0.73l-0.08-0.63h-0.03c-0.51,0.42-1.1,0.76-1.76,0.76
		C117.47,8.11,116.8,7.56,116.8,6.6z M120.07,6.69V5.2c-1.79,0.22-2.39,0.65-2.39,1.34c0,0.61,0.41,0.85,0.94,0.85
		C119.13,7.39,119.55,7.15,120.07,6.69z"/>
	<path d="M122.65,2.67h0.73l0.08,0.77h0.03c0.46-0.51,1.02-0.91,1.65-0.91c0.81,0,1.25,0.39,1.47,1.02c0.55-0.6,1.1-1.02,1.75-1.02
		c1.09,0,1.61,0.72,1.61,2.08v3.36h-0.89V4.73c0-1-0.31-1.42-0.99-1.42c-0.41,0-0.84,0.26-1.34,0.81v3.85h-0.89V4.73
		c0-1-0.31-1.42-0.99-1.42c-0.4,0-0.85,0.26-1.34,0.81v3.85h-0.89V2.67z"/>
	<path d="M131.7,2.67h0.73l0.08,0.61h0.03c0.48-0.39,1.08-0.74,1.69-0.74c1.37,0,2.11,1.08,2.11,2.71c0,1.82-1.08,2.86-2.31,2.86
		c-0.48,0-0.99-0.23-1.47-0.62l0.02,0.93v1.8h-0.89V2.67z M135.42,5.25c0-1.17-0.39-1.96-1.4-1.96c-0.45,0-0.91,0.25-1.43,0.73V6.8
		c0.48,0.41,0.95,0.56,1.3,0.56C134.77,7.36,135.42,6.57,135.42,5.25z"/>
	<path d="M137.6,1c0-0.36,0.26-0.58,0.62-0.58s0.62,0.22,0.62,0.58c0,0.33-0.26,0.58-0.62,0.58S137.6,1.33,137.6,1z M137.77,2.67
		h0.89v5.31h-0.89V2.67z"/>
	<path d="M140.06,5.33c0-1.77,1.16-2.79,2.46-2.79c1.3,0,2.46,1.03,2.46,2.79c0,1.76-1.16,2.78-2.46,2.78
		C141.22,8.11,140.06,7.09,140.06,5.33z M144.06,5.33c0-1.22-0.63-2.05-1.54-2.05c-0.92,0-1.53,0.83-1.53,2.05
		c0,1.22,0.62,2.03,1.53,2.03C143.44,7.36,144.06,6.55,144.06,5.33z"/>
	<path d="M146.38,2.67h0.73l0.08,0.76h0.03c0.51-0.5,1.06-0.9,1.78-0.9c1.11,0,1.62,0.72,1.62,2.08v3.36h-0.89V4.73
		c0-1-0.3-1.42-1.01-1.42c-0.55,0-0.92,0.27-1.46,0.81v3.85h-0.89V2.67z"/>
	<path d="M151.76,7.37l0.44-0.59c0.46,0.37,0.94,0.63,1.57,0.63c0.7,0,1.05-0.37,1.05-0.83c0-0.54-0.63-0.78-1.21-1.01
		c-0.74-0.27-1.58-0.64-1.58-1.53c0-0.84,0.67-1.5,1.83-1.5c0.65,0,1.23,0.27,1.65,0.6l-0.43,0.58c-0.37-0.27-0.74-0.47-1.22-0.47
		c-0.66,0-0.97,0.35-0.97,0.76c0,0.51,0.58,0.69,1.17,0.92c0.77,0.29,1.62,0.61,1.62,1.61c0,0.86-0.68,1.57-1.94,1.57
		C152.99,8.11,152.27,7.79,151.76,7.37z"/>
	<path d="M156.93,0.2h0.89v2.13l-0.03,1.09c0.49-0.49,1.04-0.89,1.76-0.89c1.11,0,1.62,0.72,1.62,2.08v3.36h-0.89V4.73
		c0-1-0.3-1.42-1.01-1.42c-0.55,0-0.92,0.27-1.46,0.81v3.85h-0.89V0.2z"/>
	<path d="M162.7,1c0-0.36,0.26-0.58,0.62-0.58s0.62,0.22,0.62,0.58c0,0.33-0.26,0.58-0.62,0.58S162.7,1.33,162.7,1z M162.87,2.67
		h0.89v5.31h-0.89V2.67z"/>
	<path d="M165.56,2.67h0.73l0.08,0.61h0.03c0.48-0.39,1.08-0.74,1.69-0.74c1.37,0,2.11,1.08,2.11,2.71c0,1.82-1.08,2.86-2.31,2.86
		c-0.48,0-0.99-0.23-1.47-0.62l0.02,0.93v1.8h-0.89V2.67z M169.27,5.25c0-1.17-0.39-1.96-1.4-1.96c-0.45,0-0.91,0.25-1.43,0.73V6.8
		c0.48,0.41,0.95,0.56,1.3,0.56C168.62,7.36,169.27,6.57,169.27,5.25z"/>
</g>
</svg>
