<?xml version="1.0" encoding="utf-8"?>
<!-- Generator: Adobe Illustrator 23.0.1, SVG Export Plug-In . SVG Version: 6.00 Build 0)  -->
<svg version="1.1" id="圖層_1" xmlns="http://www.w3.org/2000/svg" xmlns:xlink="http://www.w3.org/1999/xlink" x="0px" y="0px"
	 viewBox="0 0 62.99 10.22" style="enable-background:new 0 0 62.99 10.22;" xml:space="preserve">
<style type="text/css">
	.st0{fill:#2F3030;}
</style>
<g>
	<path class="st0" d="M4.44,9.28L2.48,5.86H1.03v3.43H0V1.2h2.54c1.64,0,2.82,0.58,2.82,2.27c0,1.26-0.73,2.01-1.83,2.27L5.6,9.28
		H4.44z M1.03,5.03h1.36c1.27,0,1.96-0.51,1.96-1.55c0-1.07-0.69-1.44-1.96-1.44H1.03V5.03z"/>
	<path class="st0" d="M6.54,5.22c0-2.59,1.42-4.17,3.45-4.17c2.03,0,3.45,1.58,3.45,4.17c0,2.59-1.42,4.21-3.45,4.21
		C7.97,9.43,6.54,7.81,6.54,5.22z M12.4,5.22c0-2.03-0.96-3.27-2.4-3.27c-1.46,0-2.4,1.25-2.4,3.27c0,2.02,0.95,3.32,2.4,3.32
		C11.44,8.54,12.4,7.23,12.4,5.22z"/>
	<path class="st0" d="M16.01,2.46c0-0.51,0.4-0.83,0.84-0.83c0.44,0,0.84,0.32,0.84,0.83s-0.4,0.83-0.84,0.83
		C16.4,3.29,16.01,2.97,16.01,2.46z M16.01,7.86c0-0.51,0.4-0.84,0.84-0.84c0.44,0,0.84,0.33,0.84,0.84c0,0.5-0.4,0.83-0.84,0.83
		C16.4,8.69,16.01,8.36,16.01,7.86z"/>
	<path class="st0" d="M23.2,8.73c0.65,0.24,1.47,0.32,2.51,0.32c0.53,0.01,3.88,0.01,4.55-0.02c-0.13,0.2-0.29,0.57-0.34,0.82h-4.2
		c-2.33,0-3.64-0.37-4.44-1.87c-0.13,0.88-0.33,1.63-0.66,2.25c-0.14-0.1-0.5-0.31-0.68-0.4c0.64-1.1,0.76-2.85,0.79-4.81l0.77,0.06
		c-0.01,0.53-0.03,1.05-0.07,1.53c0.24,0.77,0.56,1.31,1,1.69V4.16h-2.26V3.42h2.06V2.03h-1.79V1.3h1.79V0.08h0.78V1.3h1.59v0.73
		h-1.59v1.39h1.85v0.74H23.2v1.63h1.58v0.73H23.2V8.73z M26.83,8.34c-1.05,0-1.38-0.28-1.38-1.32V0.58h4.1v3.98h-3.31v2.45
		c0,0.47,0.1,0.57,0.65,0.57h1.95c0.47,0,0.55-0.28,0.62-1.53c0.19,0.14,0.51,0.28,0.74,0.32c-0.12,1.5-0.35,1.96-1.32,1.96H26.83z
		 M26.24,1.31v2.53h2.51V1.31H26.24z"/>
	<path class="st0" d="M32.94,4.89c-0.42-0.32-1.24-0.84-1.85-1.18l0.47-0.57c0.6,0.33,1.43,0.79,1.86,1.09L32.94,4.89z M33.64,6.44
		c-0.45,1.16-1.07,2.51-1.59,3.53l-0.73-0.45c0.49-0.85,1.17-2.29,1.68-3.53L33.64,6.44z M33.46,2.01
		c-0.42-0.33-1.24-0.87-1.83-1.26l0.47-0.56c0.6,0.34,1.42,0.85,1.84,1.17L33.46,2.01z M35.18,3.61c0,1.92-0.19,4.64-1.49,6.48
		c-0.13-0.14-0.49-0.35-0.67-0.43c1.25-1.76,1.36-4.25,1.36-6.05V0.6h6.7v0.75h-5.9V3.61z M36.94,7.21
		c-0.36,0.8-0.91,1.69-1.39,2.26c-0.15-0.12-0.46-0.31-0.66-0.42c0.51-0.53,0.99-1.31,1.31-2.04L36.94,7.21z M38.57,6.4v2.88
		c0,0.41-0.07,0.62-0.37,0.74c-0.3,0.12-0.76,0.12-1.5,0.11c-0.03-0.21-0.13-0.5-0.23-0.71c0.53,0.02,1.01,0.01,1.14,0.01
		c0.14-0.01,0.19-0.04,0.19-0.17V6.4h-1.97V2.61h1.67c0.12-0.35,0.25-0.8,0.32-1.11l0.92,0.19c-0.15,0.32-0.31,0.64-0.45,0.93h2.4
		V6.4H38.57z M36.55,4.2h3.35V3.24h-3.35V4.2z M36.55,5.77h3.35V4.8h-3.35V5.77z M40.01,6.93c0.43,0.67,0.98,1.58,1.26,2.11
		l-0.75,0.33c-0.24-0.55-0.78-1.47-1.21-2.16L40.01,6.93z"/>
	<path class="st0" d="M51.83,1.11v1.95h-0.85V1.89h-7.63v1.18h-0.8V1.11h4.44c-0.1-0.3-0.23-0.65-0.37-0.93L47.43,0
		c0.19,0.34,0.37,0.78,0.48,1.11H51.83z M44.74,6.69h6.08v3.37h-0.83V9.64h-5.25v0.49h-0.82V2.83h6.49v2.8h-5.68V6.69z M44.74,3.55
		v1.37h4.87V3.55H44.74z M44.74,7.42V8.9h5.25V7.42H44.74z"/>
	<path class="st0" d="M54.32,7.21C54.21,8.17,54,9.19,53.77,9.87c-0.13-0.08-0.45-0.18-0.61-0.22c0.24-0.68,0.41-1.65,0.52-2.54
		L54.32,7.21z M56.5,4.25c0.29,0.69,0.61,1.58,0.74,2.11l-0.62,0.24c-0.03-0.15-0.09-0.34-0.13-0.53c-2.46,0.39-2.79,0.46-3,0.57
		c-0.02-0.17-0.14-0.52-0.23-0.72c0.22-0.04,0.46-0.32,0.78-0.74c0.18-0.21,0.52-0.68,0.9-1.29c-1.15,0.13-1.38,0.19-1.52,0.26
		C53.38,4,53.27,3.64,53.19,3.45c0.18-0.04,0.36-0.28,0.58-0.61c0.23-0.33,0.98-1.59,1.41-2.78l0.69,0.3
		c-0.46,1.04-1.06,2.12-1.67,2.96l1.16-0.11c0.28-0.47,0.57-1,0.8-1.52l0.64,0.39c-0.69,1.3-1.54,2.61-2.41,3.66l1.9-0.26
		c-0.12-0.35-0.26-0.71-0.39-1.03L56.5,4.25z M55.4,7.07c0.15,0.73,0.28,1.68,0.31,2.32l-0.62,0.15c-0.02-0.65-0.14-1.61-0.26-2.36
		L55.4,7.07z M56.55,6.78c0.25,0.68,0.54,1.56,0.65,2.12l-0.57,0.21c-0.11-0.58-0.37-1.47-0.62-2.14L56.55,6.78z M62.99,9.21
		c0,0.45-0.09,0.65-0.37,0.78c-0.26,0.13-0.72,0.14-1.39,0.14c-0.02-0.2-0.12-0.53-0.21-0.73c0.46,0.02,0.9,0.01,1.04,0.01
		c0.14-0.01,0.19-0.06,0.19-0.21v-7.9h-4.12v8.83h-0.74V0.58h5.61V9.21z M61.22,7.39c0.18,0,0.49-0.01,0.65-0.06
		c0.02,0.19,0.04,0.44,0.07,0.61c-0.14,0.04-0.43,0.06-0.71,0.06h-1.41c-0.73,0-0.89-0.26-0.89-0.99V5.93h-0.41V5.28h1.5
		c-0.1-0.3-0.28-0.68-0.43-0.97l0.51-0.2h-1.69V3.46h2.1c0.2-0.52,0.42-1.29,0.52-1.82l0.6,0.18c-0.17,0.54-0.36,1.17-0.54,1.64
		h0.94v0.65h-1.85c0.19,0.32,0.39,0.75,0.49,0.99l-0.4,0.18h1.63v0.65h-2.27v1.08c0,0.29,0.03,0.37,0.26,0.37H61.22z M59.29,1.62
		c0.28,0.49,0.53,1.14,0.6,1.57l-0.53,0.19c-0.08-0.43-0.31-1.09-0.57-1.58L59.29,1.62z"/>
</g>
</svg>
